<?xml version="1.0" encoding="UTF-8"?>
<svg id="Layer_2" xmlns="http://www.w3.org/2000/svg" version="1.1" xmlns:xlink="http://www.w3.org/1999/xlink" viewBox="0 0 1660.9 149.6">
  <!-- Generator: Adobe Illustrator 29.5.0, SVG Export Plug-In . SVG Version: 2.1.0 Build 137)  -->
  <defs>
    <style>
      .st0 {
        fill: #435367;
      }

      .st1 {
        fill: #383d46;
      }

      .st2 {
        fill: none;
      }

      .st3 {
        clip-path: url(#clippath-1);
      }

      .st4 {
        fill: #586473;
      }

      .st5 {
        clip-path: url(#clippath-2);
      }

      .st6 {
        clip-path: url(#clippath);
      }
    </style>
    <clipPath id="clippath">
      <rect class="st2" x="62.2" width="1296.2" height="149.6"/>
    </clipPath>
    <clipPath id="clippath-1">
      <rect class="st2" x="202.8" width="1296.2" height="149.6"/>
    </clipPath>
    <clipPath id="clippath-2">
      <rect class="st2" x="381" width="1280" height="149.6"/>
    </clipPath>
  </defs>
  <g id="nav">
    <g class="st6">
      <path class="st4" d="M1358.4,148.7h-390c-13.7,0-33.8-6-45-13.4l-24.7-16.3c-15.5-10.2-43.3-18.5-62.3-18.5H96.5c-18.9,0-34.3-14.3-34.3-32v-36.5C62.2,14.3,77.6,0,96.5,0h1227.7c18.9,0,34.3,14.3,34.3,32v117.6"/>
    </g>
    <g class="st3">
      <path class="st0" d="M1499,148.7h-390c-13.7,0-33.8-6-45-13.4l-24.7-16.3c-15.5-10.2-43.3-18.5-62.3-18.5H237.1c-18.9,0-34.3-14.3-34.3-32v-36.5c0-17.7,15.4-32,34.3-32h1227.6c18.9,0,34.3,14.3,34.3,32v117.6"/>
    </g>
    <rect class="st1" x="-90.1" width="1861.4" height="100.5"/>
    <g class="st5">
      <path class="st1" d="M1661,148.7h-385.2c-13.5,0-33.4-6-44.4-13.4l-24.3-16.3c-15.3-10.2-42.8-18.5-61.5-18.5H414.8c-18.6,0-33.8-14.3-33.8-32v-36.5c0-17.7,15.1-32,33.8-32h1212.3c18.7,0,33.8,14.3,33.8,32v117.6"/>
    </g>
  </g>
</svg>